# Blender v2.79 (sub 0) OBJ File: ''
# www.blender.org
mtllib chair.mtl
o Cube.001_Cube.004
v -1.090560 1.885245 1.090560
v -1.090560 2.060174 1.090560
v -1.090560 1.885245 -1.090560
v -1.090560 2.060174 -1.090560
v 1.090560 1.885245 1.090560
v 1.090560 2.060174 1.090560
v 1.090560 1.885245 -1.090560
v 1.090560 2.060174 -1.090560
v 0.996842 0.000000 0.803994
v 0.996842 0.000000 0.996920
v 0.803916 0.000000 0.996920
v 0.803916 0.000000 0.803994
v 0.996842 2.000000 0.803994
v 0.996842 2.000000 0.996920
v 0.803916 2.000000 0.996920
v 0.803916 2.000000 0.803994
v 0.996842 0.000000 -0.991925
v 0.996842 0.000000 -0.798999
v 0.803916 0.000000 -0.798999
v 0.803916 0.000000 -0.991925
v 0.996842 4.603093 -0.991925
v 0.996842 4.603093 -0.798999
v 0.803916 4.603093 -0.798999
v 0.803916 4.603093 -0.991925
v -0.805361 0.000000 0.803994
v -0.805361 0.000000 0.996920
v -0.998287 0.000000 0.996920
v -0.998287 0.000000 0.803994
v -0.805361 2.000000 0.803994
v -0.805361 2.000000 0.996920
v -0.998287 2.000000 0.996920
v -0.998287 2.000000 0.803994
v -0.805361 0.000000 -0.992588
v -0.805361 0.000000 -0.799662
v -0.998287 0.000000 -0.799662
v -0.998287 0.000000 -0.992588
v -0.805361 4.603093 -0.992588
v -0.805361 4.603093 -0.799662
v -0.998287 4.603093 -0.799662
v -0.998287 4.603093 -0.992588
v 0.996842 2.596782 -0.991925
v 0.996842 2.596782 -0.798999
v 0.803916 2.596782 -0.798999
v 0.803916 2.596782 -0.991925
v 0.996842 4.346220 -0.991925
v 0.996842 4.346220 -0.798999
v 0.803916 4.346220 -0.798999
v 0.803916 4.346220 -0.991925
v 0.996842 4.141470 -0.991925
v 0.996842 4.141470 -0.798999
v 0.803916 4.141470 -0.798999
v 0.803916 4.141470 -0.991925
v 0.996842 2.788693 -0.991925
v 0.996842 2.788693 -0.798999
v 0.803916 2.788693 -0.798999
v 0.803916 2.788693 -0.991925
v 0.803916 2.596782 -0.847231
v 0.803916 2.596782 -0.943694
v 0.803916 2.788693 -0.847231
v 0.803916 2.788693 -0.943694
v 0.803916 4.141470 -0.847231
v 0.803916 4.346220 -0.847231
v 0.803916 4.141470 -0.943694
v 0.803916 4.346220 -0.943694
v -0.849617 2.596782 -0.847231
v -0.849617 2.596782 -0.943694
v -0.849617 2.788693 -0.847231
v -0.849617 2.788693 -0.943694
v -0.849617 4.141470 -0.847231
v -0.849617 4.346220 -0.847231
v -0.849617 4.141470 -0.943694
v -0.849617 4.346220 -0.943694
v -0.487278 4.346220 -0.943694
v -0.487278 4.346220 -0.847231
v -0.487278 4.141470 -0.847231
v -0.487278 4.141470 -0.943694
v 0.562842 4.346220 -0.847231
v 0.562842 4.141470 -0.847231
v 0.562842 4.141470 -0.943694
v 0.562842 4.346220 -0.943694
v -0.344955 4.346220 -0.943694
v -0.344955 4.346220 -0.847231
v -0.344955 4.141470 -0.847231
v -0.344955 4.141470 -0.943694
v 0.419871 4.346220 -0.847231
v 0.419871 4.141470 -0.847231
v 0.419871 4.141470 -0.943694
v 0.419871 4.346220 -0.943694
v -0.487278 4.141470 -0.871347
v -0.487278 4.141470 -0.919579
v 0.419871 4.141470 -0.871347
v 0.562842 4.141470 -0.871347
v 0.419871 4.141470 -0.919578
v 0.562842 4.141470 -0.919578
v -0.344955 4.141470 -0.871347
v -0.344955 4.141470 -0.919579
v -0.487278 2.707601 -0.871347
v -0.487278 2.707601 -0.919579
v 0.419871 2.707601 -0.871347
v 0.562842 2.707601 -0.871347
v 0.419871 2.707601 -0.919578
v 0.562842 2.707601 -0.919578
v -0.344955 2.707601 -0.871347
v -0.344955 2.707601 -0.919579
v -0.030628 4.346220 -0.943694
v -0.030628 4.346220 -0.847231
v -0.030628 4.141470 -0.847231
v -0.030628 4.141470 -0.943694
v 0.105645 4.346220 -0.847231
v 0.105645 4.141470 -0.847231
v 0.105645 4.141470 -0.943694
v 0.105645 4.346220 -0.943694
v -0.030628 4.141470 -0.871347
v -0.030628 4.141470 -0.919578
v 0.105645 4.141470 -0.871347
v 0.105645 4.141470 -0.919578
v -0.030628 2.781660 -0.871347
v -0.030628 2.781660 -0.919578
v 0.105645 2.781660 -0.871347
v 0.105645 2.781660 -0.919578
vn -1.0000 0.0000 0.0000
vn 0.0000 0.0000 -1.0000
vn 1.0000 0.0000 0.0000
vn 0.0000 0.0000 1.0000
vn 0.0000 -1.0000 0.0000
vn 0.0000 1.0000 0.0000
usemtl Material
s off
f 1//1 2//1 4//1 3//1
f 3//2 4//2 8//2 7//2
f 7//3 8//3 6//3 5//3
f 5//4 6//4 2//4 1//4
f 3//5 7//5 5//5 1//5
f 8//6 4//6 2//6 6//6
f 9//5 10//5 11//5 12//5
f 13//6 16//6 15//6 14//6
f 9//3 13//3 14//3 10//3
f 10//4 14//4 15//4 11//4
f 11//1 15//1 16//1 12//1
f 13//2 9//2 12//2 16//2
usemtl Material.001
f 17//5 18//5 19//5 20//5
f 21//6 24//6 23//6 22//6
f 45//3 21//3 22//3 46//3
f 46//4 22//4 23//4 47//4
f 47//1 23//1 24//1 48//1
f 41//2 17//2 20//2 44//2
f 53//2 41//2 44//2 56//2
f 19//1 43//1 44//1 20//1
f 18//4 42//4 43//4 19//4
f 17//3 41//3 42//3 18//3
f 21//2 45//2 48//2 24//2
f 48//1 52//1 63//1 64//1
f 50//4 46//4 47//4 51//4
f 49//3 45//3 46//3 50//3
f 53//3 49//3 50//3 54//3
f 54//4 50//4 51//4 55//4
f 55//1 51//1 52//1 56//1
f 45//2 49//2 52//2 48//2
f 44//5 43//5 57//5 58//5
f 42//4 54//4 55//4 43//4
f 41//3 53//3 54//3 42//3
f 49//2 53//2 56//2 52//2
f 74//6 73//6 72//6 70//6
f 56//1 44//1 58//1 60//1
f 55//6 56//6 60//6 59//6
f 43//1 55//1 59//1 57//1
f 57//4 59//4 67//4 65//4
f 52//4 51//4 61//4 63//4
f 51//1 47//1 62//1 61//1
f 47//4 48//4 64//4 62//4
f 65//1 67//1 68//1 66//1
f 69//1 70//1 72//1 71//1
f 75//4 74//4 70//4 69//4
f 60//2 58//2 66//2 68//2
f 76//5 75//5 69//5 71//5
f 58//5 57//5 65//5 66//5
f 73//2 76//2 71//2 72//2
f 59//6 60//6 68//6 67//6
f 81//2 84//2 76//2 73//2
f 78//5 86//5 91//5 92//5
f 83//4 82//4 74//4 75//4
f 82//6 81//6 73//6 74//6
f 62//6 64//6 80//6 77//6
f 61//4 62//4 77//4 78//4
f 63//5 61//5 78//5 79//5
f 64//2 63//2 79//2 80//2
f 106//6 105//6 81//6 82//6
f 107//4 106//4 82//4 83//4
f 108//5 107//5 83//5 84//5
f 105//2 108//2 84//2 81//2
f 80//2 79//2 87//2 88//2
f 84//5 83//5 95//5 96//5
f 78//4 77//4 85//4 86//4
f 77//6 80//6 88//6 85//6
f 92//4 91//4 99//4 100//4
f 94//3 92//3 100//3 102//3
f 86//4 87//4 93//4 91//4
f 83//5 75//5 89//5 95//5
f 75//5 76//5 90//5 89//5
f 79//6 78//6 92//6 94//6
f 87//5 79//5 94//5 93//5
f 76//5 84//5 96//5 90//5
f 104//5 103//5 97//5 98//5
f 102//5 100//5 99//5 101//5
f 96//3 95//3 103//3 104//3
f 95//4 89//4 97//4 103//4
f 93//2 94//2 102//2 101//2
f 89//1 90//1 98//1 97//1
f 91//1 93//1 101//1 99//1
f 90//2 96//2 104//2 98//2
f 112//2 111//2 108//2 105//2
f 110//5 107//5 113//5 115//5
f 110//4 109//4 106//4 107//4
f 109//6 112//6 105//6 106//6
f 85//6 88//6 112//6 109//6
f 86//4 85//4 109//4 110//4
f 87//5 86//5 110//5 111//5
f 88//2 87//2 111//2 112//2
f 114//2 116//2 120//2 118//2
f 107//6 108//6 114//6 113//6
f 111//6 110//6 115//6 116//6
f 108//5 111//5 116//5 114//5
f 120//5 119//5 117//5 118//5
f 113//1 114//1 118//1 117//1
f 116//3 115//3 119//3 120//3
f 115//4 113//4 117//4 119//4
usemtl Material.002
f 25//5 26//5 27//5 28//5
f 29//6 32//6 31//6 30//6
f 25//3 29//3 30//3 26//3
f 26//4 30//4 31//4 27//4
f 27//1 31//1 32//1 28//1
f 29//2 25//2 28//2 32//2
usemtl Material.003
f 33//5 34//5 35//5 36//5
f 37//6 40//6 39//6 38//6
f 33//3 37//3 38//3 34//3
f 34//4 38//4 39//4 35//4
f 35//1 39//1 40//1 36//1
f 37//2 33//2 36//2 40//2
