# Blender v2.79 (sub 0) OBJ File: ''
# www.blender.org
o Cube.002
v 0.023516 0.210942 -0.321577
v 0.023516 0.210942 0.321577
v 0.023516 1.844541 -0.331491
v 0.023516 1.844541 0.331492
v 0.023516 0.617429 -0.321577
v 0.023516 0.617429 0.321577
v 0.023516 0.000000 -0.500000
v 0.023516 0.000000 0.500000
v 0.023516 0.811123 -0.331491
v 0.023516 0.811123 0.331491
v 0.023516 0.761157 -0.500000
v 0.023516 2.000000 -0.500000
v 0.023516 0.166784 -0.358591
v 0.023516 0.166784 0.358591
v 0.023516 0.661587 -0.358591
v 0.023516 0.661587 0.358591
v 0.012087 0.193327 -0.338576
v 0.012087 0.193327 0.338576
v 0.012087 0.635045 -0.338576
v 0.012087 0.635045 0.338576
v 0.023516 0.774802 -0.368515
v 0.023516 1.880862 -0.368514
v 0.012173 0.791953 -0.351127
v 0.012173 1.863711 -0.351127
v 0.012173 0.791953 0.351127
v 0.012173 1.863711 0.351127
v 0.023516 0.761157 0.500000
v 0.023516 2.000000 0.500000
v 0.023516 0.774802 0.368515
v 0.023516 1.880862 0.368515
v 0.023516 0.916020 0.368515
v 0.023516 0.916020 0.500000
v 0.023516 0.944334 0.368515
v 0.023516 0.944334 0.500000
v 0.023516 0.916020 0.449645
v 0.023516 0.944334 0.449646
v 0.023516 0.944334 0.415264
v 0.023516 0.916020 0.415264
v 0.100871 0.916020 0.415264
v 0.100871 0.916020 0.449645
v 0.100871 0.944334 0.415264
v 0.100871 0.944334 0.449646
v 0.076946 0.944334 0.415264
v 0.076945 0.916020 0.415264
v 0.096317 0.938944 0.302537
v 0.096317 0.921409 0.302537
v 0.081500 0.921409 0.302537
v 0.081500 0.938944 0.302537
v 0.100871 0.944334 0.323258
v 0.076946 0.944334 0.323258
v 0.100871 0.916020 0.323258
v 0.076945 0.916020 0.323258
v -0.023516 0.210942 -0.321577
v -0.023516 0.210942 0.321577
v -0.023516 1.844541 -0.331491
v -0.023516 1.844541 0.331492
v -0.023516 0.617429 -0.321577
v -0.023516 0.617429 0.321577
v -0.023516 0.000000 -0.500000
v -0.023516 0.000000 0.500000
v -0.023516 0.811123 -0.331491
v -0.023516 0.811123 0.331491
v -0.023516 0.761157 -0.500000
v -0.023516 2.000000 -0.500000
v -0.023516 0.166784 -0.358591
v -0.023516 0.166784 0.358591
v -0.023516 0.661587 -0.358591
v -0.023516 0.661587 0.358591
v -0.012087 0.193327 -0.338576
v -0.012087 0.193327 0.338576
v -0.012087 0.635045 -0.338576
v -0.012087 0.635045 0.338576
v -0.023516 0.774802 -0.368515
v -0.023516 1.880862 -0.368514
v -0.012173 0.791953 -0.351127
v -0.012173 1.863711 -0.351127
v -0.012173 0.791953 0.351127
v -0.012173 1.863711 0.351127
v -0.023516 0.761157 0.500000
v -0.023516 2.000000 0.500000
v -0.023516 0.774802 0.368515
v -0.023516 1.880862 0.368515
v -0.023516 0.916020 0.368515
v -0.023516 0.916020 0.500000
v -0.023516 0.944334 0.368515
v -0.023516 0.944334 0.500000
v -0.023516 0.916020 0.449645
v -0.023516 0.944334 0.449646
v -0.023516 0.944334 0.415264
v -0.023516 0.916020 0.415264
v -0.100871 0.916020 0.415264
v -0.100871 0.916020 0.449645
v -0.100871 0.944334 0.415264
v -0.100871 0.944334 0.449646
v -0.076946 0.944334 0.415264
v -0.076945 0.916020 0.415264
v -0.096317 0.938944 0.302537
v -0.096317 0.921409 0.302537
v -0.081500 0.921409 0.302537
v -0.081500 0.938944 0.302537
v -0.100871 0.944334 0.323258
v -0.076946 0.944334 0.323258
v -0.100871 0.916020 0.323258
v -0.076945 0.916020 0.323258
vt 0.231743 0.212027
vt 0.325397 0.117773
vt 0.319251 0.219562
vt 0.434991 0.196278
vt 0.468651 0.123903
vt 0.462118 0.200855
vt 0.512144 0.055325
vt 0.533839 0.314204
vt 0.509302 0.261597
vt 0.375361 0.316715
vt 0.391703 0.267652
vt 0.378080 0.006155
vt 0.540561 0.000106
vt 0.392698 0.054370
vt 0.178981 0.276999
vt 0.159066 0.321953
vt 0.179970 0.043315
vt 0.162804 0.000106
vt 0.372998 0.272590
vt 0.482054 0.224897
vt 0.416719 0.223802
vt 0.421023 0.094015
vt 0.487020 0.096899
vt 0.441349 0.118918
vt 0.344328 0.244071
vt 0.207536 0.241478
vt 0.211786 0.077920
vt 0.339256 0.051772
vt 0.348615 0.091030
vt 0.238323 0.105007
vt 0.345708 0.020116
vt 0.348048 0.005346
vt 0.897832 0.180365
vt 0.886198 0.176412
vt 0.897711 0.175867
vt 0.374288 0.060831
vt 0.348588 0.033206
vt 0.350333 0.020945
vt 0.343348 0.032265
vt 0.345939 0.052388
vt 0.352383 0.005756
vt 0.891127 0.966961
vt 0.886439 0.181135
vt 0.905076 0.966630
vt 0.942788 0.966349
vt 0.946674 0.355841
vt 0.968720 0.966494
vt 0.930998 0.966373
vt 0.925395 0.356487
vt 0.937109 0.220808
vt 0.930185 0.187006
vt 0.939021 0.220301
vt 0.935105 0.231481
vt 0.928274 0.187513
vt 0.920305 0.180092
vt 0.929766 0.186062
vt 0.939235 0.221121
vt 0.938476 0.231791
vt 0.962653 0.187503
vt 0.954291 0.193830
vt 0.970189 0.190048
vt 0.174756 0.773425
vt 0.344398 0.782214
vt 0.345544 0.794687
vt 0.777101 0.978915
vt 0.782805 0.358912
vt 0.803453 0.979177
vt 0.379574 0.813311
vt 0.384129 0.996283
vt 0.355112 0.996572
vt 0.372073 0.502322
vt 0.159219 0.494455
vt 0.002799 0.493149
vt 0.156526 0.817167
vt 0.000106 0.815861
vt 0.537263 0.814541
vt 0.680873 0.503349
vt 0.686725 0.811705
vt 0.872492 0.181466
vt 0.982757 0.191150
vt 0.921731 0.176886
vt 0.347064 0.814483
vt 0.342515 0.767374
vt 0.822412 0.180647
vt 0.810830 0.179865
vt 0.349790 0.996644
vt 0.156097 0.996433
vt 0.532806 0.999894
vt 0.352474 0.814156
vt 0.531412 0.506186
vt 0.317750 0.597530
vt 0.234810 0.711170
vt 0.229975 0.604336
vt 0.460226 0.619230
vt 0.440313 0.700607
vt 0.433187 0.623949
vt 0.509673 0.761723
vt 0.507087 0.558274
vt 0.389201 0.552181
vt 0.393382 0.764724
vt 0.178239 0.539260
vt 0.370405 0.545485
vt 0.374826 0.757257
vt 0.485094 0.721668
vt 0.480006 0.595114
vt 0.414673 0.596457
vt 0.420634 0.725253
vt 0.467000 0.695466
vt 0.342401 0.573364
vt 0.206229 0.574752
vt 0.349396 0.728192
vt 0.207536 0.738190
vt 0.325265 0.699895
vt 0.822657 0.175846
vt 0.810952 0.175292
vt 0.350887 0.794259
vt 0.347585 0.765893
vt 0.817632 0.979513
vt 0.724493 0.190828
vt 0.761173 0.358254
vt 0.738754 0.979037
vt 0.765117 0.978890
vt 0.777938 0.186616
vt 0.770899 0.220979
vt 0.768955 0.220464
vt 0.772936 0.231829
vt 0.779882 0.187131
vt 0.787983 0.179587
vt 0.778365 0.185656
vt 0.786533 0.176327
vt 0.768738 0.221297
vt 0.769509 0.232144
vt 0.744932 0.187120
vt 0.737270 0.189709
vt 0.349443 0.781696
vt 0.836592 0.180984
vt 0.753432 0.193553
vn 1.0000 -0.0000 0.0000
vn 0.9185 0.3955 -0.0000
vn 0.8684 -0.0000 0.4959
vn 0.8684 0.0000 -0.4959
vn 0.9185 -0.3955 0.0000
vn 0.8389 -0.5443 0.0000
vn 0.8299 0.0000 -0.5580
vn 0.8299 -0.0000 0.5580
vn 0.8389 0.5443 0.0000
vn 0.8375 -0.0000 0.5464
vn 0.8375 0.0000 -0.5464
vn 0.8341 -0.5516 0.0000
vn 0.8341 0.5516 0.0000
vn 0.8659 0.0000 -0.5002
vn 0.8659 -0.0000 0.5002
vn 0.8606 0.5092 0.0000
vn 0.8606 -0.5092 0.0000
vn 0.0000 -0.0000 1.0000
vn 0.0000 -1.0000 0.0000
vn 0.0000 -0.0000 -1.0000
vn 0.0000 1.0000 -0.0000
vn 0.0000 0.9678 -0.2517
vn 0.9767 -0.0000 -0.2147
vn -0.9767 0.0000 -0.2147
vn 0.0000 -0.9678 -0.2517
vn -1.0000 0.0000 -0.0000
vn -0.9185 0.3955 0.0000
vn -0.8684 -0.0000 0.4959
vn -0.8684 0.0000 -0.4959
vn -0.9185 -0.3955 0.0000
vn -0.8389 -0.5443 -0.0000
vn -0.8299 0.0000 -0.5580
vn -0.8299 -0.0000 0.5580
vn -0.8389 0.5443 0.0000
vn -0.8375 -0.0000 0.5464
vn -0.8375 0.0000 -0.5464
vn -0.8341 -0.5516 0.0000
vn -0.8341 0.5516 -0.0000
vn -0.8659 0.0000 -0.5002
vn -0.8659 -0.0000 0.5002
vn -0.8606 0.5092 0.0000
vn -0.8606 -0.5092 -0.0000
s off
f 3/1/1 10/2/1 9/3/1
f 5/4/1 2/5/1 1/6/1
f 14/7/1 7/8/1 13/9/1
f 13/9/1 11/10/1 15/11/1
f 14/7/1 27/12/1 8/13/1
f 15/11/1 27/12/1 16/14/1
f 22/15/1 11/10/1 12/16/1
f 30/17/1 12/16/1 28/18/1
f 21/19/1 27/12/1 11/10/1
f 17/20/2 14/7/2 13/9/2
f 17/20/3 15/11/3 19/21/3
f 20/22/4 14/7/4 18/23/4
f 19/21/5 16/14/5 20/22/5
f 1/6/6 18/23/6 17/20/6
f 1/6/7 19/21/7 5/4/7
f 2/5/8 20/22/8 18/23/8
f 6/24/9 19/21/9 20/22/9
f 23/25/10 22/15/10 24/26/10
f 26/27/11 33/28/11 25/29/11
f 26/27/12 22/15/12 30/17/12
f 25/29/13 21/19/13 23/25/13
f 9/3/14 24/26/14 3/1/14
f 4/30/15 25/29/15 10/2/15
f 3/1/16 26/27/16 4/30/16
f 10/2/17 23/25/17 9/3/17
f 36/31/1 30/17/1 34/32/1
f 41/33/1 40/34/1 39/35/1
f 29/36/1 38/37/1 35/38/1
f 37/39/1 31/40/1 33/28/1
f 36/31/1 32/41/1 35/38/1
f 35/42/18 42/43/18 36/44/18
f 38/45/19 44/46/19 35/47/19
f 37/48/20 44/46/20 38/45/20
f 42/43/21 41/33/21 43/49/21
f 48/50/20 46/51/20 47/52/20
f 50/53/22 45/54/22 48/50/22
f 49/55/23 46/56/23 45/54/23
f 50/53/24 47/57/24 52/58/24
f 51/59/25 47/57/25 46/60/25
f 44/46/19 51/59/19 39/61/19
f 43/49/26 52/58/26 44/46/26
f 39/35/1 49/55/1 41/33/1
f 41/33/21 50/53/21 43/49/21
f 82/62/26 89/63/26 88/64/26
f 89/65/21 95/66/21 88/67/21
f 79/68/18 27/69/18 32/70/18
f 11/10/20 63/71/20 64/72/20
f 12/73/21 80/74/21 28/75/21
f 60/76/19 7/77/19 8/78/19
f 3/1/1 4/30/1 10/2/1
f 5/4/1 6/24/1 2/5/1
f 14/7/1 8/13/1 7/8/1
f 13/9/1 7/8/1 11/10/1
f 14/7/1 16/14/1 27/12/1
f 15/11/1 11/10/1 27/12/1
f 22/15/1 21/19/1 11/10/1
f 30/17/1 22/15/1 12/16/1
f 21/19/1 29/36/1 27/12/1
f 17/20/2 18/23/2 14/7/2
f 17/20/3 13/9/3 15/11/3
f 20/22/4 16/14/4 14/7/4
f 19/21/5 15/11/5 16/14/5
f 1/6/6 2/5/6 18/23/6
f 1/6/7 17/20/7 19/21/7
f 2/5/8 6/24/8 20/22/8
f 6/24/9 5/4/9 19/21/9
f 23/25/10 21/19/10 22/15/10
f 29/36/11 25/29/11 31/40/11
f 26/27/11 30/17/11 33/28/11
f 33/28/11 31/40/11 25/29/11
f 26/27/12 24/26/12 22/15/12
f 25/29/13 29/36/13 21/19/13
f 9/3/14 23/25/14 24/26/14
f 4/30/15 26/27/15 25/29/15
f 3/1/16 24/26/16 26/27/16
f 10/2/17 25/29/17 23/25/17
f 28/18/1 34/32/1 30/17/1
f 36/31/1 37/39/1 30/17/1
f 33/28/1 30/17/1 37/39/1
f 41/33/1 42/43/1 40/34/1
f 32/41/1 27/12/1 35/38/1
f 29/36/1 31/40/1 38/37/1
f 35/38/1 27/12/1 29/36/1
f 37/39/1 38/37/1 31/40/1
f 36/31/1 34/32/1 32/41/1
f 35/42/18 40/79/18 42/43/18
f 40/80/19 35/47/19 44/46/19
f 44/46/19 39/61/19 40/80/19
f 37/48/20 43/49/20 44/46/20
f 43/49/21 37/48/21 36/44/21
f 36/44/21 42/43/21 43/49/21
f 48/50/20 45/54/20 46/51/20
f 50/53/22 49/55/22 45/54/22
f 49/55/23 51/81/23 46/56/23
f 50/53/24 48/50/24 47/57/24
f 51/59/25 52/58/25 47/57/25
f 44/46/19 52/58/19 51/59/19
f 43/49/26 50/53/26 52/58/26
f 39/35/1 51/81/1 49/55/1
f 41/33/21 49/55/21 50/53/21
f 88/64/26 86/82/26 82/62/26
f 80/74/26 82/62/26 86/82/26
f 85/83/26 89/63/26 82/62/26
f 94/84/21 88/67/21 95/66/21
f 95/66/21 93/85/21 94/84/21
f 34/86/18 28/87/18 80/74/18
f 80/74/18 86/82/18 34/86/18
f 79/68/18 60/76/18 8/88/18
f 86/82/18 84/89/18 32/70/18
f 32/70/18 34/86/18 86/82/18
f 8/88/18 27/69/18 79/68/18
f 84/89/18 79/68/18 32/70/18
f 64/72/20 12/16/20 11/10/20
f 11/10/20 7/8/20 59/90/20
f 59/90/20 63/71/20 11/10/20
f 12/73/21 64/72/21 80/74/21
f 60/76/19 59/90/19 7/77/19
f 61/91/26 56/92/26 55/93/26
f 53/94/26 58/95/26 57/96/26
f 59/90/26 66/97/26 65/98/26
f 63/71/26 65/98/26 67/99/26
f 66/97/26 79/68/26 68/100/26
f 79/68/26 67/99/26 68/100/26
f 74/101/26 63/71/26 73/102/26
f 82/62/26 64/72/26 74/101/26
f 73/102/26 79/68/26 81/103/26
f 65/98/27 70/104/27 69/105/27
f 67/99/28 69/105/28 71/106/28
f 66/97/29 72/107/29 70/104/29
f 68/100/30 71/106/30 72/107/30
f 69/105/31 54/108/31 53/94/31
f 71/106/32 53/94/32 57/96/32
f 54/108/33 72/107/33 58/95/33
f 72/107/34 57/96/34 58/95/34
f 74/101/35 75/109/35 76/110/35
f 77/111/36 81/103/36 85/83/36
f 78/112/37 74/101/37 76/110/37
f 73/102/38 77/111/38 75/109/38
f 76/110/39 61/91/39 55/93/39
f 77/111/40 56/92/40 62/113/40
f 78/112/41 55/93/41 56/92/41
f 75/109/42 62/113/42 61/91/42
f 92/114/26 93/85/26 91/115/26
f 79/68/26 84/89/26 87/116/26
f 83/117/26 89/63/26 85/83/26
f 84/89/26 88/64/26 87/116/26
f 94/84/18 87/118/18 88/67/18
f 92/119/19 96/120/19 87/121/19
f 96/120/20 89/65/20 90/122/20
f 98/123/20 100/124/20 99/125/20
f 102/126/22 97/127/22 101/128/22
f 101/128/24 98/129/24 103/130/24
f 99/131/23 102/126/23 104/132/23
f 103/133/25 99/131/25 104/132/25
f 103/133/19 96/120/19 91/134/19
f 96/120/1 102/126/1 95/66/1
f 101/128/26 91/115/26 93/85/26
f 102/126/21 93/85/21 95/66/21
f 61/91/26 62/113/26 56/92/26
f 53/94/26 54/108/26 58/95/26
f 59/90/26 60/76/26 66/97/26
f 63/71/26 59/90/26 65/98/26
f 66/97/26 60/76/26 79/68/26
f 79/68/26 63/71/26 67/99/26
f 74/101/26 64/72/26 63/71/26
f 82/62/26 80/74/26 64/72/26
f 73/102/26 63/71/26 79/68/26
f 65/98/27 66/97/27 70/104/27
f 67/99/28 65/98/28 69/105/28
f 66/97/29 68/100/29 72/107/29
f 68/100/30 67/99/30 71/106/30
f 69/105/31 70/104/31 54/108/31
f 71/106/32 69/105/32 53/94/32
f 54/108/33 70/104/33 72/107/33
f 72/107/34 71/106/34 57/96/34
f 74/101/35 73/102/35 75/109/35
f 85/83/36 82/62/36 78/112/36
f 78/112/36 77/111/36 85/83/36
f 78/112/37 82/62/37 74/101/37
f 73/102/38 81/103/38 77/111/38
f 76/110/39 75/109/39 61/91/39
f 77/111/40 78/112/40 56/92/40
f 78/112/41 76/110/41 55/93/41
f 75/109/42 77/111/42 62/113/42
f 92/114/26 94/84/26 93/85/26
f 90/135/26 83/117/26 81/103/26
f 81/103/26 79/68/26 87/116/26
f 87/116/26 90/135/26 81/103/26
f 83/117/26 90/135/26 89/63/26
f 84/89/26 86/82/26 88/64/26
f 94/84/18 92/136/18 87/118/18
f 90/122/19 87/121/19 96/120/19
f 92/119/19 91/134/19 96/120/19
f 96/120/20 95/66/20 89/65/20
f 98/123/20 97/127/20 100/124/20
f 102/126/22 100/124/22 97/127/22
f 101/128/24 97/127/24 98/129/24
f 99/131/23 100/124/23 102/126/23
f 103/133/25 98/137/25 99/131/25
f 103/133/19 104/132/19 96/120/19
f 96/120/1 104/132/1 102/126/1
f 101/128/26 103/130/26 91/115/26
f 102/126/21 101/128/21 93/85/21
